<mxfile host="app.diagrams.net" modified="2023-12-01T12:54:15.247Z" agent="Mozilla/5.0 (Windows NT 10.0; Win64; x64) AppleWebKit/537.36 (KHTML, like Gecko) Chrome/119.0.0.0 Safari/537.36" etag="O3XZwivfjF3wvp3Tq9yW" version="22.1.5" type="device">
  <diagram name="PÃ¡gina-1" id="7x2fmesRiPZ4M0jJuliP">
    <mxGraphModel dx="1050" dy="595" grid="1" gridSize="10" guides="1" tooltips="1" connect="1" arrows="1" fold="1" page="1" pageScale="1" pageWidth="827" pageHeight="1169" math="1" shadow="0">
      <root>
        <mxCell id="0" />
        <mxCell id="1" parent="0" />
        <mxCell id="ceRFphHJnrTuNZOqrOw2-23" value="" style="rounded=1;whiteSpace=wrap;html=1;fillColor=none;dashed=1;" parent="1" vertex="1">
          <mxGeometry x="250" y="91" width="320" height="139" as="geometry" />
        </mxCell>
        <mxCell id="LxAOdA9R8CcLWUHo1WCZ-1" value="" style="shape=cube;whiteSpace=wrap;html=1;boundedLbl=1;backgroundOutline=1;darkOpacity=0.05;darkOpacity2=0.1;fillColor=#d5e8d4;strokeColor=#82b366;" parent="1" vertex="1">
          <mxGeometry x="80" y="151" width="140" height="30" as="geometry" />
        </mxCell>
        <mxCell id="LxAOdA9R8CcLWUHo1WCZ-2" value="" style="shape=cube;whiteSpace=wrap;html=1;boundedLbl=1;backgroundOutline=1;darkOpacity=0.05;darkOpacity2=0.1;fillColor=#d5e8d4;strokeColor=#82b366;" parent="1" vertex="1">
          <mxGeometry x="80" y="135" width="140" height="30" as="geometry" />
        </mxCell>
        <mxCell id="LxAOdA9R8CcLWUHo1WCZ-3" value="" style="shape=cube;whiteSpace=wrap;html=1;boundedLbl=1;backgroundOutline=1;darkOpacity=0.05;darkOpacity2=0.1;fillColor=#d5e8d4;strokeColor=#82b366;" parent="1" vertex="1">
          <mxGeometry x="80" y="121" width="140" height="30" as="geometry" />
        </mxCell>
        <mxCell id="LxAOdA9R8CcLWUHo1WCZ-4" value="$$X$$" style="text;html=1;strokeColor=none;fillColor=none;align=center;verticalAlign=middle;whiteSpace=wrap;rounded=0;fontColor=#336600;" parent="1" vertex="1">
          <mxGeometry x="95" y="181" width="110" height="30" as="geometry" />
        </mxCell>
        <mxCell id="6yX8p0fEQagD2ALPLdG7-7" value="$$\mathcal{L}_{\text{feat}}$$" style="text;html=1;align=center;verticalAlign=middle;whiteSpace=wrap;rounded=0;fontColor=#ba5b57;fontSize=25;" parent="1" vertex="1">
          <mxGeometry x="560" y="300" width="60" height="60" as="geometry" />
        </mxCell>
        <mxCell id="ceRFphHJnrTuNZOqrOw2-1" value="" style="endArrow=classic;html=1;rounded=0;exitX=0;exitY=0;exitDx=140;exitDy=25;exitPerimeter=0;entryX=0;entryY=0.5;entryDx=0;entryDy=0;" parent="1" source="LxAOdA9R8CcLWUHo1WCZ-2" target="ceRFphHJnrTuNZOqrOw2-2" edge="1">
          <mxGeometry width="50" height="50" relative="1" as="geometry">
            <mxPoint x="570" y="170" as="sourcePoint" />
            <mxPoint x="250" y="160" as="targetPoint" />
          </mxGeometry>
        </mxCell>
        <mxCell id="ceRFphHJnrTuNZOqrOw2-2" value="&lt;p style=&quot;line-height: 120%;&quot;&gt;&lt;br&gt;&lt;/p&gt;" style="rounded=1;whiteSpace=wrap;html=1;fillColor=#ffe6cc;strokeColor=#d79b00;verticalAlign=middle;textDirection=ltr;" parent="1" vertex="1">
          <mxGeometry x="270" y="100" width="40" height="120" as="geometry" />
        </mxCell>
        <mxCell id="ceRFphHJnrTuNZOqrOw2-5" value="GConvLSTM" style="text;html=1;strokeColor=none;fillColor=none;align=center;verticalAlign=middle;whiteSpace=wrap;rounded=0;rotation=270;" parent="1" vertex="1">
          <mxGeometry x="260" y="145" width="60" height="30" as="geometry" />
        </mxCell>
        <mxCell id="ceRFphHJnrTuNZOqrOw2-6" value="&lt;p style=&quot;line-height: 120%;&quot;&gt;&lt;br&gt;&lt;/p&gt;" style="rounded=1;whiteSpace=wrap;html=1;fillColor=#e1d5e7;strokeColor=#9673a6;verticalAlign=middle;textDirection=ltr;" parent="1" vertex="1">
          <mxGeometry x="390" y="100" width="40" height="120" as="geometry" />
        </mxCell>
        <mxCell id="ceRFphHJnrTuNZOqrOw2-7" value="Batch Norm" style="text;html=1;strokeColor=none;fillColor=none;align=center;verticalAlign=middle;whiteSpace=wrap;rounded=0;rotation=270;" parent="1" vertex="1">
          <mxGeometry x="360" y="145.5" width="100" height="30" as="geometry" />
        </mxCell>
        <mxCell id="ceRFphHJnrTuNZOqrOw2-8" value="&lt;p style=&quot;line-height: 120%;&quot;&gt;&lt;br&gt;&lt;/p&gt;" style="rounded=1;whiteSpace=wrap;html=1;fillColor=#f8cecc;strokeColor=#b85450;verticalAlign=middle;textDirection=ltr;" parent="1" vertex="1">
          <mxGeometry x="330" y="100" width="40" height="120" as="geometry" />
        </mxCell>
        <mxCell id="ceRFphHJnrTuNZOqrOw2-9" value="TanH" style="text;html=1;strokeColor=none;fillColor=none;align=center;verticalAlign=middle;whiteSpace=wrap;rounded=0;rotation=270;" parent="1" vertex="1">
          <mxGeometry x="300" y="145" width="100" height="30" as="geometry" />
        </mxCell>
        <mxCell id="ceRFphHJnrTuNZOqrOw2-13" value="&lt;p style=&quot;line-height: 120%;&quot;&gt;&lt;br&gt;&lt;/p&gt;" style="rounded=1;whiteSpace=wrap;html=1;fillColor=#d5e8d4;strokeColor=#82b366;verticalAlign=middle;textDirection=ltr;" parent="1" vertex="1">
          <mxGeometry x="450" y="100" width="40" height="120" as="geometry" />
        </mxCell>
        <mxCell id="ceRFphHJnrTuNZOqrOw2-14" value="Dropout" style="text;html=1;strokeColor=none;fillColor=none;align=center;verticalAlign=middle;whiteSpace=wrap;rounded=0;rotation=270;" parent="1" vertex="1">
          <mxGeometry x="420" y="145" width="100" height="30" as="geometry" />
        </mxCell>
        <mxCell id="ceRFphHJnrTuNZOqrOw2-17" value="" style="endArrow=classic;html=1;rounded=0;exitX=1;exitY=0.5;exitDx=0;exitDy=0;" parent="1" edge="1" source="ceRFphHJnrTuNZOqrOw2-2">
          <mxGeometry width="50" height="50" relative="1" as="geometry">
            <mxPoint x="310" y="159.83" as="sourcePoint" />
            <mxPoint x="330" y="160" as="targetPoint" />
          </mxGeometry>
        </mxCell>
        <mxCell id="ceRFphHJnrTuNZOqrOw2-18" value="" style="endArrow=classic;html=1;rounded=0;exitX=0.992;exitY=0.501;exitDx=0;exitDy=0;entryX=0;entryY=0.5;entryDx=0;entryDy=0;exitPerimeter=0;" parent="1" edge="1" target="ceRFphHJnrTuNZOqrOw2-13" source="ceRFphHJnrTuNZOqrOw2-6">
          <mxGeometry width="50" height="50" relative="1" as="geometry">
            <mxPoint x="430" y="159.82999999999998" as="sourcePoint" />
            <mxPoint x="450" y="159.82999999999998" as="targetPoint" />
          </mxGeometry>
        </mxCell>
        <mxCell id="ceRFphHJnrTuNZOqrOw2-20" value="" style="endArrow=classic;html=1;rounded=0;exitX=1;exitY=0.5;exitDx=0;exitDy=0;entryX=0;entryY=0.5;entryDx=0;entryDy=0;" parent="1" edge="1">
          <mxGeometry width="50" height="50" relative="1" as="geometry">
            <mxPoint x="490" y="159.89999999999998" as="sourcePoint" />
            <mxPoint x="510" y="159.89999999999998" as="targetPoint" />
          </mxGeometry>
        </mxCell>
        <mxCell id="ceRFphHJnrTuNZOqrOw2-21" value="&lt;p style=&quot;line-height: 120%;&quot;&gt;&lt;br&gt;&lt;/p&gt;" style="rounded=1;whiteSpace=wrap;html=1;fillColor=#dae8fc;strokeColor=#6c8ebf;verticalAlign=middle;textDirection=ltr;" parent="1" vertex="1">
          <mxGeometry x="510" y="100" width="40" height="120" as="geometry" />
        </mxCell>
        <mxCell id="ceRFphHJnrTuNZOqrOw2-22" value="Linear" style="text;html=1;strokeColor=none;fillColor=none;align=center;verticalAlign=middle;whiteSpace=wrap;rounded=0;rotation=270;" parent="1" vertex="1">
          <mxGeometry x="480" y="145" width="100" height="30" as="geometry" />
        </mxCell>
        <mxCell id="ceRFphHJnrTuNZOqrOw2-24" value="Encoder" style="text;html=1;strokeColor=none;fillColor=none;align=center;verticalAlign=middle;whiteSpace=wrap;rounded=0;" parent="1" vertex="1">
          <mxGeometry x="270" y="61" width="60" height="30" as="geometry" />
        </mxCell>
        <mxCell id="ceRFphHJnrTuNZOqrOw2-25" value="" style="endArrow=classic;html=1;rounded=0;exitX=1;exitY=0.5;exitDx=0;exitDy=0;" parent="1" source="ceRFphHJnrTuNZOqrOw2-21" edge="1">
          <mxGeometry width="50" height="50" relative="1" as="geometry">
            <mxPoint x="620" y="180" as="sourcePoint" />
            <mxPoint x="620" y="160" as="targetPoint" />
          </mxGeometry>
        </mxCell>
        <mxCell id="ceRFphHJnrTuNZOqrOw2-26" value="" style="rounded=1;whiteSpace=wrap;html=1;fillColor=none;dashed=1;" parent="1" vertex="1">
          <mxGeometry x="600" y="91" width="380" height="139" as="geometry" />
        </mxCell>
        <mxCell id="ceRFphHJnrTuNZOqrOw2-27" value="&lt;p style=&quot;line-height: 120%;&quot;&gt;&lt;br&gt;&lt;/p&gt;" style="rounded=1;whiteSpace=wrap;html=1;fillColor=#ffe6cc;strokeColor=#d79b00;verticalAlign=middle;textDirection=ltr;" parent="1" vertex="1">
          <mxGeometry x="620" y="100" width="40" height="120" as="geometry" />
        </mxCell>
        <mxCell id="ceRFphHJnrTuNZOqrOw2-28" value="GConvLSTM" style="text;html=1;strokeColor=none;fillColor=none;align=center;verticalAlign=middle;whiteSpace=wrap;rounded=0;rotation=270;" parent="1" vertex="1">
          <mxGeometry x="610" y="145" width="60" height="30" as="geometry" />
        </mxCell>
        <mxCell id="ceRFphHJnrTuNZOqrOw2-29" value="&lt;p style=&quot;line-height: 120%;&quot;&gt;&lt;br&gt;&lt;/p&gt;" style="rounded=1;whiteSpace=wrap;html=1;fillColor=#e1d5e7;strokeColor=#9673a6;verticalAlign=middle;textDirection=ltr;" parent="1" vertex="1">
          <mxGeometry x="740" y="100" width="40" height="120" as="geometry" />
        </mxCell>
        <mxCell id="ceRFphHJnrTuNZOqrOw2-30" value="Batch Norm" style="text;html=1;strokeColor=none;fillColor=none;align=center;verticalAlign=middle;whiteSpace=wrap;rounded=0;rotation=270;" parent="1" vertex="1">
          <mxGeometry x="710" y="145" width="100" height="30" as="geometry" />
        </mxCell>
        <mxCell id="ceRFphHJnrTuNZOqrOw2-31" value="&lt;p style=&quot;line-height: 120%;&quot;&gt;&lt;br&gt;&lt;/p&gt;" style="rounded=1;whiteSpace=wrap;html=1;fillColor=#f8cecc;strokeColor=#b85450;verticalAlign=middle;textDirection=ltr;" parent="1" vertex="1">
          <mxGeometry x="680" y="100" width="40" height="120" as="geometry" />
        </mxCell>
        <mxCell id="ceRFphHJnrTuNZOqrOw2-32" value="TanH" style="text;html=1;strokeColor=none;fillColor=none;align=center;verticalAlign=middle;whiteSpace=wrap;rounded=0;rotation=270;" parent="1" vertex="1">
          <mxGeometry x="650" y="145.5" width="100" height="30" as="geometry" />
        </mxCell>
        <mxCell id="ceRFphHJnrTuNZOqrOw2-33" value="" style="endArrow=classic;html=1;rounded=0;exitX=1;exitY=0.5;exitDx=0;exitDy=0;" parent="1" source="ceRFphHJnrTuNZOqrOw2-27" edge="1">
          <mxGeometry width="50" height="50" relative="1" as="geometry">
            <mxPoint x="680" y="100" as="sourcePoint" />
            <mxPoint x="680" y="160" as="targetPoint" />
          </mxGeometry>
        </mxCell>
        <mxCell id="ceRFphHJnrTuNZOqrOw2-34" value="&lt;p style=&quot;line-height: 120%;&quot;&gt;&lt;br&gt;&lt;/p&gt;" style="rounded=1;whiteSpace=wrap;html=1;fillColor=#d5e8d4;strokeColor=#82b366;verticalAlign=middle;textDirection=ltr;" parent="1" vertex="1">
          <mxGeometry x="800" y="100" width="40" height="120" as="geometry" />
        </mxCell>
        <mxCell id="ceRFphHJnrTuNZOqrOw2-35" value="Dropout" style="text;html=1;strokeColor=none;fillColor=none;align=center;verticalAlign=middle;whiteSpace=wrap;rounded=0;rotation=270;" parent="1" vertex="1">
          <mxGeometry x="770" y="145" width="100" height="30" as="geometry" />
        </mxCell>
        <mxCell id="ceRFphHJnrTuNZOqrOw2-37" value="" style="endArrow=classic;html=1;rounded=0;exitX=1;exitY=0.5;exitDx=0;exitDy=0;entryX=0;entryY=0.5;entryDx=0;entryDy=0;" parent="1" edge="1" source="ceRFphHJnrTuNZOqrOw2-29">
          <mxGeometry width="50" height="50" relative="1" as="geometry">
            <mxPoint x="780" y="159.82999999999998" as="sourcePoint" />
            <mxPoint x="800" y="159.82999999999998" as="targetPoint" />
          </mxGeometry>
        </mxCell>
        <mxCell id="ceRFphHJnrTuNZOqrOw2-38" value="" style="endArrow=classic;html=1;rounded=0;exitX=1;exitY=0.5;exitDx=0;exitDy=0;entryX=0;entryY=0.5;entryDx=0;entryDy=0;" parent="1" edge="1">
          <mxGeometry width="50" height="50" relative="1" as="geometry">
            <mxPoint x="840" y="159.89999999999998" as="sourcePoint" />
            <mxPoint x="860" y="159.89999999999998" as="targetPoint" />
          </mxGeometry>
        </mxCell>
        <mxCell id="ceRFphHJnrTuNZOqrOw2-39" value="&lt;p style=&quot;line-height: 120%;&quot;&gt;&lt;br&gt;&lt;/p&gt;" style="rounded=1;whiteSpace=wrap;html=1;fillColor=#dae8fc;strokeColor=#6c8ebf;verticalAlign=middle;textDirection=ltr;" parent="1" vertex="1">
          <mxGeometry x="860" y="100" width="40" height="120" as="geometry" />
        </mxCell>
        <mxCell id="ceRFphHJnrTuNZOqrOw2-40" value="Linear" style="text;html=1;strokeColor=none;fillColor=none;align=center;verticalAlign=middle;whiteSpace=wrap;rounded=0;rotation=270;" parent="1" vertex="1">
          <mxGeometry x="830" y="145" width="100" height="30" as="geometry" />
        </mxCell>
        <mxCell id="ceRFphHJnrTuNZOqrOw2-41" value="Decoder" style="text;html=1;strokeColor=none;fillColor=none;align=center;verticalAlign=middle;whiteSpace=wrap;rounded=0;" parent="1" vertex="1">
          <mxGeometry x="620" y="61" width="60" height="30" as="geometry" />
        </mxCell>
        <mxCell id="ceRFphHJnrTuNZOqrOw2-42" value="" style="endArrow=classic;html=1;rounded=0;exitX=1;exitY=0.5;exitDx=0;exitDy=0;entryX=0;entryY=0.5;entryDx=0;entryDy=0;" parent="1" edge="1">
          <mxGeometry width="50" height="50" relative="1" as="geometry">
            <mxPoint x="900" y="159.89999999999998" as="sourcePoint" />
            <mxPoint x="920" y="159.89999999999998" as="targetPoint" />
          </mxGeometry>
        </mxCell>
        <mxCell id="ceRFphHJnrTuNZOqrOw2-43" value="&lt;p style=&quot;line-height: 120%;&quot;&gt;&lt;br&gt;&lt;/p&gt;" style="rounded=1;whiteSpace=wrap;html=1;fillColor=#f8cecc;strokeColor=#b85450;verticalAlign=middle;textDirection=ltr;" parent="1" vertex="1">
          <mxGeometry x="920" y="100" width="40" height="120" as="geometry" />
        </mxCell>
        <mxCell id="ceRFphHJnrTuNZOqrOw2-44" value="Sigmoid" style="text;html=1;strokeColor=none;fillColor=none;align=center;verticalAlign=middle;whiteSpace=wrap;rounded=0;rotation=270;" parent="1" vertex="1">
          <mxGeometry x="890" y="145" width="100" height="30" as="geometry" />
        </mxCell>
        <mxCell id="ceRFphHJnrTuNZOqrOw2-45" value="" style="endArrow=classic;html=1;rounded=0;exitX=1;exitY=0.5;exitDx=0;exitDy=0;" parent="1" source="ceRFphHJnrTuNZOqrOw2-43" edge="1">
          <mxGeometry width="50" height="50" relative="1" as="geometry">
            <mxPoint x="1020" y="180" as="sourcePoint" />
            <mxPoint x="1020" y="160" as="targetPoint" />
          </mxGeometry>
        </mxCell>
        <mxCell id="ceRFphHJnrTuNZOqrOw2-46" value="" style="shape=cube;whiteSpace=wrap;html=1;boundedLbl=1;backgroundOutline=1;darkOpacity=0.05;darkOpacity2=0.1;fillColor=#d5e8d4;strokeColor=#82b366;" parent="1" vertex="1">
          <mxGeometry x="1020" y="151" width="140" height="30" as="geometry" />
        </mxCell>
        <mxCell id="ceRFphHJnrTuNZOqrOw2-47" value="" style="shape=cube;whiteSpace=wrap;html=1;boundedLbl=1;backgroundOutline=1;darkOpacity=0.05;darkOpacity2=0.1;fillColor=#d5e8d4;strokeColor=#82b366;" parent="1" vertex="1">
          <mxGeometry x="1020" y="135" width="140" height="30" as="geometry" />
        </mxCell>
        <mxCell id="ceRFphHJnrTuNZOqrOw2-48" value="" style="shape=cube;whiteSpace=wrap;html=1;boundedLbl=1;backgroundOutline=1;darkOpacity=0.05;darkOpacity2=0.1;fillColor=#d5e8d4;strokeColor=#82b366;" parent="1" vertex="1">
          <mxGeometry x="1020" y="121" width="140" height="30" as="geometry" />
        </mxCell>
        <mxCell id="ceRFphHJnrTuNZOqrOw2-49" value="$$\hat{X}$$" style="text;html=1;strokeColor=none;fillColor=none;align=center;verticalAlign=middle;whiteSpace=wrap;rounded=0;fontColor=#336600;" parent="1" vertex="1">
          <mxGeometry x="1035" y="181" width="110" height="30" as="geometry" />
        </mxCell>
        <mxCell id="ceRFphHJnrTuNZOqrOw2-50" value="Loss Function" style="rounded=1;whiteSpace=wrap;html=1;fillColor=#FFE4D9;fontColor=#333333;strokeColor=#666666;" parent="1" vertex="1">
          <mxGeometry x="530" y="250" width="120" height="60" as="geometry" />
        </mxCell>
        <mxCell id="ceRFphHJnrTuNZOqrOw2-51" value="" style="endArrow=classic;html=1;rounded=0;exitX=0.5;exitY=1;exitDx=0;exitDy=0;entryX=0;entryY=0.5;entryDx=0;entryDy=0;" parent="1" source="LxAOdA9R8CcLWUHo1WCZ-4" target="ceRFphHJnrTuNZOqrOw2-50" edge="1">
          <mxGeometry width="50" height="50" relative="1" as="geometry">
            <mxPoint x="480" y="370" as="sourcePoint" />
            <mxPoint x="530" y="320" as="targetPoint" />
            <Array as="points">
              <mxPoint x="150" y="280" />
            </Array>
          </mxGeometry>
        </mxCell>
        <mxCell id="ceRFphHJnrTuNZOqrOw2-52" value="" style="endArrow=classic;html=1;rounded=0;exitX=0.5;exitY=1;exitDx=0;exitDy=0;entryX=1;entryY=0.5;entryDx=0;entryDy=0;" parent="1" source="ceRFphHJnrTuNZOqrOw2-49" target="ceRFphHJnrTuNZOqrOw2-50" edge="1">
          <mxGeometry width="50" height="50" relative="1" as="geometry">
            <mxPoint x="1030" y="211" as="sourcePoint" />
            <mxPoint x="650" y="320" as="targetPoint" />
            <Array as="points">
              <mxPoint x="1090" y="280" />
            </Array>
          </mxGeometry>
        </mxCell>
        <mxCell id="lyR_sHRTJ5GQd38nFJMi-1" value="" style="endArrow=classic;html=1;rounded=0;exitX=0.977;exitY=0.499;exitDx=0;exitDy=0;entryX=0;entryY=0.5;entryDx=0;entryDy=0;exitPerimeter=0;" edge="1" parent="1" source="ceRFphHJnrTuNZOqrOw2-8" target="ceRFphHJnrTuNZOqrOw2-6">
          <mxGeometry width="50" height="50" relative="1" as="geometry">
            <mxPoint x="370" y="159.57" as="sourcePoint" />
            <mxPoint x="390" y="159.39999999999998" as="targetPoint" />
          </mxGeometry>
        </mxCell>
        <mxCell id="lyR_sHRTJ5GQd38nFJMi-2" value="" style="endArrow=classic;html=1;rounded=0;exitX=1;exitY=0.5;exitDx=0;exitDy=0;" edge="1" parent="1">
          <mxGeometry width="50" height="50" relative="1" as="geometry">
            <mxPoint x="720" y="159.89" as="sourcePoint" />
            <mxPoint x="740" y="159.89" as="targetPoint" />
          </mxGeometry>
        </mxCell>
      </root>
    </mxGraphModel>
  </diagram>
</mxfile>
